<svg xmlns="http://www.w3.org/2000/svg" viewBox="0 0 1000 240" ><rect width="1000" height="240" fill="#F3F0FF"/><g transform="translate(72 32)"><path d="M20 22H62Q76 22 76 36V66H55V44H20Q9 44 9 33Q9 22 20 22Z" fill="#4437B6"/></g><text x="125" y="182" text-anchor="middle" font-family="Arial,sans-serif" font-size="17" fill="#22252B">Elbow piece</text><g transform="translate(322 32)"><g transform="rotate(0 50 50)"><path class="" fill="#4437B6" d="M37 8H64Q76 8 76 20V36Q76 41 71 41H63Q58 41 58 36V26H37Q28 26 28 17Q28 8 37 8Z"/></g><g transform="rotate(120 50 50)"><path class="" fill="#B64722" d="M37 8H64Q76 8 76 20V36Q76 41 71 41H63Q58 41 58 36V26H37Q28 26 28 17Q28 8 37 8Z"/></g><g transform="rotate(240 50 50)"><path class="" fill="#4437B6" d="M37 8H64Q76 8 76 20V36Q76 41 71 41H63Q58 41 58 36V26H37Q28 26 28 17Q28 8 37 8Z"/></g></g><text x="375" y="182" text-anchor="middle" font-family="Arial,sans-serif" font-size="17" fill="#22252B">Shared pocket</text><g transform="translate(572 32)"><g transform="rotate(45 50 50)"><g transform="rotate(0 50 50)"><path class="" fill="#4437B6" d="M37 8H64Q76 8 76 20V36Q76 41 71 41H63Q58 41 58 36V26H37Q28 26 28 17Q28 8 37 8Z"/></g><g transform="rotate(120 50 50)"><path class="" fill="#B64722" d="M37 8H64Q76 8 76 20V36Q76 41 71 41H63Q58 41 58 36V26H37Q28 26 28 17Q28 8 37 8Z"/></g><g transform="rotate(240 50 50)"><path class="" fill="#4437B6" d="M37 8H64Q76 8 76 20V36Q76 41 71 41H63Q58 41 58 36V26H37Q28 26 28 17Q28 8 37 8Z"/></g></g></g><text x="625" y="182" text-anchor="middle" font-family="Arial,sans-serif" font-size="17" fill="#22252B">Quarter-turn</text><g transform="translate(822 32)"><g transform="translate(0 0) scale(.46)"><g transform="rotate(0 50 50)"><path class="" fill="#4437B6" d="M37 8H64Q76 8 76 20V36Q76 41 71 41H63Q58 41 58 36V26H37Q28 26 28 17Q28 8 37 8Z"/></g><g transform="rotate(120 50 50)"><path class="" fill="#B64722" d="M37 8H64Q76 8 76 20V36Q76 41 71 41H63Q58 41 58 36V26H37Q28 26 28 17Q28 8 37 8Z"/></g><g transform="rotate(240 50 50)"><path class="" fill="#4437B6" d="M37 8H64Q76 8 76 20V36Q76 41 71 41H63Q58 41 58 36V26H37Q28 26 28 17Q28 8 37 8Z"/></g></g><g transform="translate(29 28) scale(.46)"><g transform="rotate(0 50 50)"><path class="" fill="#4437B6" d="M37 8H64Q76 8 76 20V36Q76 41 71 41H63Q58 41 58 36V26H37Q28 26 28 17Q28 8 37 8Z"/></g><g transform="rotate(120 50 50)"><path class="" fill="#B64722" d="M37 8H64Q76 8 76 20V36Q76 41 71 41H63Q58 41 58 36V26H37Q28 26 28 17Q28 8 37 8Z"/></g><g transform="rotate(240 50 50)"><path class="" fill="#4437B6" d="M37 8H64Q76 8 76 20V36Q76 41 71 41H63Q58 41 58 36V26H37Q28 26 28 17Q28 8 37 8Z"/></g></g><g transform="translate(58 0) scale(.46)"><g transform="rotate(0 50 50)"><path class="" fill="#4437B6" d="M37 8H64Q76 8 76 20V36Q76 41 71 41H63Q58 41 58 36V26H37Q28 26 28 17Q28 8 37 8Z"/></g><g transform="rotate(120 50 50)"><path class="" fill="#B64722" d="M37 8H64Q76 8 76 20V36Q76 41 71 41H63Q58 41 58 36V26H37Q28 26 28 17Q28 8 37 8Z"/></g><g transform="rotate(240 50 50)"><path class="" fill="#4437B6" d="M37 8H64Q76 8 76 20V36Q76 41 71 41H63Q58 41 58 36V26H37Q28 26 28 17Q28 8 37 8Z"/></g></g></g><text x="875" y="182" text-anchor="middle" font-family="Arial,sans-serif" font-size="17" fill="#22252B">Assembled rhythm</text></svg>